<svg width="40" height="40" viewBox="0 0 40 40" fill="none" xmlns="http://www.w3.org/2000/svg">
<g clip-path="url(#clip0_216_4)">
<path d="M40 20C40 8.9543 31.0457 0 20 0C8.9543 0 0 8.9543 0 20C0 31.0457 8.9543 40 20 40C31.0457 40 40 31.0457 40 20Z" fill="#A3A3A3"/>
<path d="M29.9802 28.4799C31.3823 30.6874 32.043 31.8594 32.043 33.0819C32.043 35.4962 30.2498 36.6669 27.8341 36.6669C26.7693 36.6669 26.0819 36.6655 24.3447 35.7618C24.3447 35.7618 23.2191 34.7317 20.585 34.8375C17.9263 34.7324 16.8 35.7747 16.8 35.7747C15.0628 36.6778 14.4 36.6683 13.3365 36.6683C10.9208 36.6683 9.12629 35.499 9.12629 33.0833C9.12629 31.8607 9.78909 30.6901 11.1905 28.4812C11.1905 28.4812 13.8396 24.0819 16.1352 22.0123C17.7939 20.5188 20.2123 20.5242 20.2123 20.5242H20.9584C20.9584 20.5242 23.4826 20.5174 25.0376 22.0123C27.2621 24.157 29.9802 28.4805 29.9802 28.4799ZM14.6833 17.5822C17.2089 17.5822 19.256 14.3918 19.256 10.4567C19.256 6.5215 17.2089 3.33105 14.6833 3.33105C12.1577 3.33105 10.1106 6.5215 10.1106 10.4567C10.1106 14.3918 12.1577 17.5822 14.6833 17.5822ZM10.301 24.4833C12.1625 23.6239 12.587 20.5768 11.2485 17.6771C9.90991 14.7775 7.31605 13.1229 5.45462 13.9816C3.59318 14.8403 3.16929 17.8881 4.50718 20.7877C5.84574 23.6874 8.4396 25.3413 10.301 24.4833ZM25.3147 17.5822C27.8403 17.5822 29.8881 14.3918 29.8881 10.4567C29.8881 6.5215 27.8403 3.33105 25.3147 3.33105C22.7891 3.33105 20.742 6.5215 20.742 10.4567C20.742 14.3918 22.7891 17.5822 25.3147 17.5822ZM34.544 13.9809C32.6819 13.1215 30.0887 14.7761 28.7502 17.6764C27.4116 20.5768 27.8362 23.6239 29.6983 24.4833C31.5604 25.342 34.1536 23.6874 35.4922 20.7877C36.8307 17.8881 36.4062 14.8403 34.544 13.9809Z" fill="white"/>
</g>
<defs>
<clipPath id="clip0_216_4">
<rect width="40" height="40" fill="white"/>
</clipPath>
</defs>
</svg>
